<?xml version="1.0" encoding="utf-8"?>
<!-- Generator: Adobe Illustrator 16.0.4, SVG Export Plug-In . SVG Version: 6.00 Build 0)  -->
<!DOCTYPE svg PUBLIC "-//W3C//DTD SVG 1.1//EN" "http://www.w3.org/Graphics/SVG/1.1/DTD/svg11.dtd">
<svg version="1.1" id="Layer_1" xmlns="http://www.w3.org/2000/svg" xmlns:xlink="http://www.w3.org/1999/xlink" x="0px" y="0px"
	 width="20px" height="20px" viewBox="0 0 20 20" enable-background="new 0 0 20 20" xml:space="preserve">
<g>
	<g>
		<path d="M17.706,19.606L0.394,2.294c-0.525-0.525-0.526-1.375,0-1.901c0.525-0.525,1.376-0.525,1.901,0l17.312,17.312
			c0.524,0.524,0.525,1.376,0,1.901S18.231,20.131,17.706,19.606z"/>
	</g>
</g>
<g>
	<g>
		<path d="M0.396,17.706L17.708,0.394c0.524-0.525,1.375-0.526,1.9,0c0.525,0.525,0.525,1.376,0,1.901L2.296,19.607
			c-0.524,0.524-1.376,0.525-1.901,0S-0.129,18.231,0.396,17.706z"/>
	</g>
</g>
</svg>
