<?xml version="1.0" encoding="utf-8"?>
<!-- Generator: Adobe Illustrator 16.0.4, SVG Export Plug-In . SVG Version: 6.00 Build 0)  -->
<!DOCTYPE svg PUBLIC "-//W3C//DTD SVG 1.1//EN" "http://www.w3.org/Graphics/SVG/1.1/DTD/svg11.dtd">
<svg version="1.1" id="Layer_1" xmlns="http://www.w3.org/2000/svg" xmlns:xlink="http://www.w3.org/1999/xlink" x="0px" y="0px"
	 width="149.667px" height="50px" viewBox="0 0 149.667 50" enable-background="new 0 0 149.667 50" xml:space="preserve">
<g>
	<polygon fill="#0D2440" points="20.107,23.476 16.49,17.267 12.592,17.267 18.417,26.634 18.417,32.732 21.752,32.732 
		21.752,26.568 27.58,17.267 23.788,17.267 	"/>
	<path fill="#0D2440" d="M45.866,19.333c-0.714-0.714-1.562-1.28-2.545-1.699c-0.981-0.421-2.056-0.631-3.226-0.631
		c-1.171,0-2.25,0.21-3.237,0.631c-0.989,0.419-1.841,0.994-2.557,1.721c-0.713,0.729-1.274,1.577-1.679,2.541
		c-0.404,0.965-0.606,2-0.606,3.104v0.043c0,1.105,0.199,2.141,0.598,3.104c0.395,0.964,0.952,1.804,1.667,2.519
		c0.714,0.715,1.562,1.281,2.545,1.7c0.981,0.42,2.057,0.631,3.227,0.631s2.249-0.211,3.237-0.631
		c0.987-0.419,1.84-0.993,2.556-1.723c0.715-0.73,1.274-1.576,1.679-2.54c0.404-0.965,0.606-2,0.606-3.104v-0.045
		c0-1.104-0.199-2.138-0.598-3.104C47.138,20.887,46.582,20.047,45.866,19.333z M44.644,25.043c0,0.663-0.111,1.286-0.336,1.868
		c-0.223,0.582-0.534,1.093-0.932,1.535c-0.397,0.441-0.877,0.788-1.44,1.04c-0.563,0.25-1.177,0.375-1.84,0.375
		c-0.68,0-1.296-0.128-1.852-0.386c-0.557-0.259-1.041-0.608-1.452-1.05c-0.411-0.442-0.729-0.958-0.952-1.547
		c-0.225-0.588-0.336-1.214-0.336-1.877v-0.045c0-0.663,0.111-1.284,0.336-1.866c0.224-0.582,0.534-1.094,0.932-1.535
		c0.398-0.443,0.873-0.789,1.43-1.039c0.557-0.25,1.172-0.375,1.852-0.375c0.663,0,1.276,0.127,1.84,0.385
		c0.563,0.258,1.052,0.608,1.463,1.05c0.411,0.442,0.729,0.958,0.952,1.546c0.225,0.589,0.336,1.215,0.336,1.878V25.043z"/>
	<path fill="#0D2440" d="M65.065,26.126c0,1.237-0.288,2.165-0.865,2.785c-0.579,0.618-1.379,0.927-2.403,0.927
		c-1.027,0-1.827-0.32-2.406-0.961c-0.577-0.641-0.866-1.594-0.866-2.861v-8.748h-3.335v8.837c0,2.283,0.584,3.998,1.754,5.146
		s2.771,1.723,4.808,1.723c1.011,0,1.929-0.143,2.751-0.43c0.822-0.288,1.522-0.722,2.102-1.304
		c0.577-0.581,1.021-1.307,1.332-2.176c0.311-0.869,0.465-1.893,0.465-3.072v-8.726h-3.335V26.126z"/>
	<polygon fill="#0D2440" points="91.336,27.739 87.935,17.224 85.076,17.224 81.675,27.739 78.535,17.267 74.962,17.267 
		80.138,32.843 83.041,32.843 86.462,22.724 89.884,32.843 92.784,32.843 97.962,17.267 94.476,17.267 	"/>
	<polygon fill="#0D2440" points="108.054,26.458 115.201,26.458 115.201,23.43 108.054,23.43 108.054,20.293 116.176,20.293 
		116.176,17.267 104.762,17.267 104.762,32.732 116.283,32.732 116.283,29.706 108.054,29.706 	"/>
	<polygon fill="#0D2440" points="133.783,17.267 133.783,26.79 126.679,17.267 123.603,17.267 123.603,32.732 126.896,32.732 
		126.896,22.901 134.237,32.732 137.074,32.732 137.074,17.267 	"/>
</g>
</svg>
