<?xml version="1.0" encoding="utf-8"?>
<!-- Generator: Adobe Illustrator 16.0.4, SVG Export Plug-In . SVG Version: 6.00 Build 0)  -->
<!DOCTYPE svg PUBLIC "-//W3C//DTD SVG 1.1//EN" "http://www.w3.org/Graphics/SVG/1.1/DTD/svg11.dtd">
<svg version="1.1" id="Layer_1" xmlns="http://www.w3.org/2000/svg" xmlns:xlink="http://www.w3.org/1999/xlink" x="0px" y="0px"
	 width="247px" height="212.667px" viewBox="0 0 247 212.667" enable-background="new 0 0 247 212.667" xml:space="preserve">
<g>
	<polygon fill="#222222" points="49.699,162.945 44.821,154.572 39.564,154.572 47.42,167.205 47.42,175.428 51.917,175.428 
		51.917,167.115 59.776,154.572 54.662,154.572 	"/>
	<path fill="#222222" d="M84.436,157.358c-0.962-0.963-2.105-1.728-3.432-2.292c-1.323-0.566-2.771-0.852-4.35-0.852
		c-1.579,0-3.033,0.283-4.366,0.852c-1.333,0.564-2.481,1.34-3.446,2.321c-0.963,0.983-1.72,2.126-2.265,3.427
		c-0.545,1.303-0.817,2.695-0.817,4.188v0.059c0,1.49,0.269,2.887,0.806,4.188c0.532,1.301,1.283,2.433,2.248,3.396
		c0.963,0.964,2.105,1.728,3.432,2.293c1.323,0.565,2.773,0.851,4.351,0.851c1.578,0,3.033-0.283,4.366-0.851
		c1.332-0.565,2.481-1.34,3.446-2.323c0.965-0.984,1.719-2.125,2.264-3.426c0.546-1.301,0.818-2.695,0.818-4.186v-0.062
		c0-1.489-0.27-2.884-0.806-4.187C86.151,159.455,85.4,158.322,84.436,157.358z M82.787,165.06c0,0.895-0.15,1.734-0.453,2.52
		c-0.301,0.783-0.72,1.474-1.256,2.068c-0.536,0.596-1.183,1.062-1.942,1.402c-0.76,0.337-1.587,0.505-2.481,0.505
		c-0.917,0-1.747-0.173-2.497-0.521c-0.751-0.35-1.403-0.82-1.958-1.416c-0.555-0.597-0.983-1.291-1.283-2.086
		c-0.304-0.794-0.454-1.639-0.454-2.531v-0.062c0-0.894,0.15-1.731,0.454-2.517c0.3-0.785,0.72-1.477,1.256-2.07
		c0.536-0.598,1.177-1.062,1.927-1.4c0.751-0.338,1.581-0.506,2.497-0.506c0.895,0,1.722,0.172,2.481,0.52
		c0.76,0.35,1.419,0.82,1.974,1.416c0.555,0.597,0.982,1.291,1.283,2.086c0.303,0.795,0.453,1.639,0.453,2.533L82.787,165.06
		L82.787,165.06z"/>
	<path fill="#222222" d="M110.327,166.52c0,1.668-0.389,2.919-1.167,3.755c-0.781,0.833-1.859,1.25-3.241,1.25
		c-1.385,0-2.464-0.432-3.245-1.296c-0.777-0.864-1.167-2.149-1.167-3.858v-11.797H97.01v11.918c0,3.078,0.787,5.391,2.365,6.939
		c1.577,1.549,3.737,2.324,6.482,2.324c1.363,0,2.602-0.193,3.71-0.58c1.109-0.389,2.054-0.973,2.835-1.758
		c0.777-0.783,1.375-1.764,1.795-2.936c0.42-1.172,0.628-2.552,0.628-4.143v-11.769h-4.498V166.52z"/>
	<polygon fill="#222222" points="145.754,168.694 141.167,154.515 137.312,154.515 132.727,168.694 128.492,154.572 
		123.674,154.572 130.652,175.578 134.568,175.578 139.182,161.932 143.796,175.578 147.708,175.578 154.689,154.572 
		149.988,154.572 	"/>
	<polygon fill="#222222" points="168.3,166.966 177.938,166.966 177.938,162.884 168.3,162.884 168.3,158.654 179.253,158.654 
		179.253,154.572 163.859,154.572 163.859,175.428 179.396,175.428 179.396,171.347 168.3,171.347 	"/>
	<polygon fill="#222222" points="202.997,154.572 202.997,167.414 193.416,154.572 189.268,154.572 189.268,175.428 
		193.708,175.428 193.708,162.171 203.609,175.428 207.436,175.428 207.436,154.572 	"/>
	<path fill="#222222" d="M144.096,53.508h-33.247c-1.3,0-2.354,1.053-2.354,2.354c0,1.299,1.054,2.353,2.354,2.353h33.247
		c1.301,0,2.354-1.054,2.354-2.353C146.449,54.561,145.396,53.508,144.096,53.508z"/>
	<path fill="#222222" d="M127.473,36.881c-25.298,0-45.876,20.581-45.876,45.879c0,17.223,9.547,32.254,23.618,40.097
		c0.021,0.01,0.04,0.025,0.062,0.033c6.58,3.656,14.148,5.746,22.197,5.746c25.295,0,45.877-20.58,45.877-45.876
		C173.35,57.462,152.768,36.881,127.473,36.881z M149.154,117.737l-17.246-17.243l-3.327,3.327l16.257,16.255
		c-5.281,2.469-11.164,3.854-17.365,3.854c-6.204,0-12.083-1.388-17.365-3.854l45.928-45.926c0.671-0.674,0.874-1.686,0.509-2.564
		c-0.363-0.879-1.223-1.454-2.172-1.454h-53.8c-0.953,0-1.811,0.575-2.175,1.454c-0.365,0.879-0.163,1.891,0.511,2.564
		l24.128,24.124l3.327-3.327l-20.11-20.109h42.438l-42.9,42.899c-11.689-7.271-19.49-20.227-19.49-34.977
		c0-22.703,18.469-41.173,41.172-41.173c22.699,0,41.17,18.47,41.17,41.173C168.643,97.51,160.843,110.464,149.154,117.737z"/>
</g>
</svg>
