<?xml version="1.0" encoding="utf-8"?>
<!-- Generator: Adobe Illustrator 16.0.4, SVG Export Plug-In . SVG Version: 6.00 Build 0)  -->
<!DOCTYPE svg PUBLIC "-//W3C//DTD SVG 1.1//EN" "http://www.w3.org/Graphics/SVG/1.1/DTD/svg11.dtd">
<svg version="1.1" id="Layer_1" xmlns="http://www.w3.org/2000/svg" xmlns:xlink="http://www.w3.org/1999/xlink" x="0px" y="0px"
	 width="30px" height="30.254px" viewBox="0 0 30 30.254" enable-background="new 0 0 30 30.254" xml:space="preserve">
<g>
	<path fill="#0D2440" d="M20.436,5.436H9.565c-0.425,0-0.769,0.345-0.769,0.77c0,0.426,0.344,0.769,0.769,0.769h10.871
		c0.425,0,0.771-0.343,0.771-0.769C21.206,5.78,20.86,5.436,20.436,5.436z"/>
	<path fill="#0D2440" d="M15,0C6.729,0,0,6.729,0,15c0,5.632,3.122,10.546,7.723,13.111c0.007,0.002,0.013,0.006,0.021,0.011
		C9.895,29.316,12.369,30,15,30c8.27,0,15-6.729,15-15C30,6.729,23.27,0,15,0z M22.09,26.436l-5.64-5.637l-1.088,1.088l5.316,5.315
		c-1.728,0.807-3.651,1.261-5.679,1.261c-2.028,0-3.951-0.454-5.677-1.261l15.015-15.018c0.221-0.219,0.287-0.55,0.168-0.838
		c-0.12-0.288-0.399-0.476-0.711-0.476H6.205c-0.312,0-0.592,0.188-0.711,0.476c-0.12,0.288-0.053,0.619,0.167,0.838l7.889,7.889
		l1.087-1.087l-6.575-6.575h13.875L7.911,26.436C4.089,24.06,1.539,19.823,1.539,15C1.539,7.578,7.577,1.539,15,1.539
		c7.422,0,13.462,6.039,13.462,13.461C28.462,19.823,25.911,24.06,22.09,26.436z"/>
</g>
</svg>
