<?xml version="1.0" encoding="utf-8"?>
<!-- Generator: Adobe Illustrator 16.0.4, SVG Export Plug-In . SVG Version: 6.00 Build 0)  -->
<!DOCTYPE svg PUBLIC "-//W3C//DTD SVG 1.1//EN" "http://www.w3.org/Graphics/SVG/1.1/DTD/svg11.dtd">
<svg version="1.1" id="Layer_1" xmlns="http://www.w3.org/2000/svg" xmlns:xlink="http://www.w3.org/1999/xlink" x="0px" y="0px"
	 width="30px" height="30.254px" viewBox="0 0 30 30.254" enable-background="new 0 0 30 30.254" xml:space="preserve">
<g>
	<path fill="#0D2440" d="M14.999,0.055c-8.309,0-15.07,6.762-15.07,15.072c0,5.399,2.855,10.143,7.135,12.805L22.77,12.228H7.232
		l7.361,7.36l-1.218,1.218l-8.831-8.831c-0.247-0.244-0.321-0.615-0.188-0.938c0.135-0.32,0.447-0.532,0.796-0.532h19.695
		c0.347,0,0.661,0.212,0.794,0.532c0.135,0.323,0.059,0.694-0.186,0.938L8.645,28.787c1.932,0.902,4.084,1.412,6.354,1.412
		c2.273,0,4.426-0.51,6.358-1.412l-5.949-5.949l1.218-1.218l6.313,6.312c4.276-2.662,7.132-7.405,7.132-12.805
		C30.071,6.816,23.311,0.055,14.999,0.055z M21.087,6.143H8.915c-0.474,0-0.862-0.386-0.862-0.861c0-0.477,0.389-0.862,0.862-0.862
		h12.172c0.477,0,0.862,0.386,0.862,0.862C21.949,5.757,21.563,6.143,21.087,6.143z"/>
</g>
</svg>
