<?xml version="1.0" encoding="utf-8"?>
<!-- Generator: Adobe Illustrator 16.0.4, SVG Export Plug-In . SVG Version: 6.00 Build 0)  -->
<!DOCTYPE svg PUBLIC "-//W3C//DTD SVG 1.1//EN" "http://www.w3.org/Graphics/SVG/1.1/DTD/svg11.dtd">
<svg version="1.1" id="Layer_1" xmlns="http://www.w3.org/2000/svg" xmlns:xlink="http://www.w3.org/1999/xlink" x="0px" y="0px"
	 width="20px" height="20px" viewBox="0 0 20 20" enable-background="new 0 0 20 20" xml:space="preserve">
<g>
	<g>
		<path d="M18.57,11.344H1.429c-0.742,0-1.344-0.601-1.344-1.344s0.602-1.344,1.344-1.344h17.143c0.742,0,1.345,0.602,1.345,1.344
			C19.916,10.743,19.312,11.344,18.57,11.344z"/>
	</g>
	<g>
		<path d="M18.57,18.348H1.429c-0.742,0-1.344-0.603-1.344-1.346c0-0.741,0.602-1.344,1.344-1.344h17.143
			c0.742,0,1.345,0.603,1.345,1.344C19.916,17.745,19.312,18.348,18.57,18.348z"/>
	</g>
	<g>
		<path d="M18.57,4.342H1.429c-0.742,0-1.344-0.603-1.344-1.345s0.602-1.344,1.344-1.344h17.143c0.742,0,1.345,0.602,1.345,1.344
			C19.916,3.739,19.312,4.342,18.57,4.342z"/>
	</g>
</g>
</svg>
